# FreeCAD v0.20 build1 Arch module
# http://www.freecadweb.org
mtllib model.mtl
o Fusion
usemtl color_cccccc
v 0.618034 1.902113 10.0
v -0.0 2.0 10.0
v 0.0 0.0 10.0
v 1.902113 0.618034 10.0
v 2.0 -0.0 10.0
v 1.17557 1.618034 10.0
v 1.618034 1.17557 10.0
v -1.693448 1.064064 10.0
v -1.949856 0.445042 10.0
v -1.987424 -0.223929 10.0
v -1.801938 -0.867767 10.0
v -1.414214 -1.414214 10.0
v -0.867767 -1.801938 10.0
v -0.223929 -1.987424 10.0
v 0.445042 -1.949856 10.0
v 1.064064 -1.693448 10.0
v -1.24698 1.563663 10.0
v 1.563663 -1.24698 10.0
v -0.660558 1.887767 10.0
v 1.887767 -0.660558 10.0
v 10.0 0.0 10.0
v 0.0 10.0 10.0
v 10.0 10.0 10.0
v 0.0 2.0 4.582576
v -0.660558 1.887767 4.582576
v -1.24698 1.563663 4.582576
v -1.693448 1.064064 4.582576
v -1.949856 0.445042 4.582576
v -1.987424 -0.223929 4.582576
v -1.801938 -0.867767 4.582576
v -1.414214 -1.414214 4.582576
v -0.867767 -1.801938 4.582576
v -0.223929 -1.987424 4.582576
v 0.445042 -1.949856 4.582576
v 1.064064 -1.693448 4.582576
v 1.563663 -1.24698 4.582576
v 1.887767 -0.660558 4.582576
v 2.0 -0.0 4.582576
v 0.0 5.0 0.0
v 0.0 4.791477 1.428898
v 0.0 10.0 0.0
v 0.0 4.1833 2.738613
v 0.0 3.226197 3.819902
v 10.0 10.0 0.0
v 10.0 0.0 0.0
v 5.0 -0.0 -0.0
v 4.791477 -0.0 1.428898
v 4.1833 -0.0 2.738613
v 3.226197 -0.0 3.819902
v 2.133517 0.525865 -4.491277
v 2.938926 -0.0 -4.045085
v 1.545085 -0.0 -4.755282
v 1.644754 1.457125 -4.491277
v 0.0 -0.0 -5.0
v 0.779198 2.054575 -4.491277
v 3.495423 1.834539 -3.068629
v 4.045085 -0.0 -2.938926
v 4.755282 -0.0 -1.545085
v -0.264863 2.181347 -4.491277
v 2.24249 3.248808 -3.068629
v -1.248248 1.808399 -4.491277
v 4.752306 1.171338 -1.021548
v 4.755282 1.545085 0.0
v 4.045085 2.938926 0.0
v 0.47583 3.918814 -3.068629
v -1.945673 1.021168 -4.491277
v 3.66361 3.245675 -1.021548
v 2.938926 4.045085 0.0
v -1.399837 3.691067 -3.068629
v -2.197368 0.0 -4.491277
v 1.735625 4.576467 -1.021548
v 1.545085 4.755282 0.0
v -2.954818 2.617741 -3.068629
v -1.945673 -1.021168 -4.491277
v -0.589971 4.858845 -1.021548
v -3.832886 0.944722 -3.068629
v -1.248248 -1.808399 -4.491277
v -2.780411 4.028121 -1.021548
v -3.832886 -0.944722 -3.068629
v -0.264863 -2.181347 -4.491277
v -4.333892 2.274602 -1.021548
v -2.954818 -2.617741 -3.068629
v -1.718232 4.530606 1.233406
v 0.779198 -2.054575 -4.491277
v -4.894532 0.0 -1.021548
v -1.399837 -3.691067 -3.068629
v -3.626896 3.21315 1.233406
v 1.644754 -1.457125 -4.491277
v -4.333892 -2.274602 -1.021548
v -0.459297 3.78265 3.237376
v 0.47583 -3.918814 -3.068629
v -4.704682 1.1596 1.233406
v 2.133517 -0.525865 -4.491277
v -2.780411 -4.028121 -1.021548
v -2.164572 3.135924 3.237376
v 2.24249 -3.248808 -3.068629
v -4.704682 -1.1596 1.233406
v -0.589971 -4.858845 -1.021548
v -3.37397 1.770796 3.237376
v 3.495423 -1.834539 -3.068629
v -3.626896 -3.21315 1.233406
v 1.735625 -4.576467 -1.021548
v -3.810432 0.0 3.237376
v -1.718232 -4.530606 1.233406
v 3.66361 -3.245675 -1.021548
v -3.37397 -1.770796 3.237376
v 0.584058 -4.810154 1.233406
v 4.752306 -1.171338 -1.021548
v -2.164572 -3.135924 3.237376
v 2.752548 -3.987755 1.233406
v -0.459297 -3.78265 3.237376
v 4.290462 -2.251808 1.233406
v 1.351198 -3.562816 3.237376
v 2.852149 -2.526784 3.237376
v 3.699708 -0.911896 3.237376
vn 0.0 0.0 1.0
vn 0.0 0.0 1.0
vn 0.0 0.0 1.0
vn 0.0 0.0 1.0
vn 0.0 0.0 1.0
vn 0.0 0.0 1.0
vn 0.0 0.0 1.0
vn 0.0 0.0 1.0
vn 0.0 0.0 1.0
vn 0.0 0.0 1.0
vn 0.0 0.0 1.0
vn 0.0 0.0 1.0
vn 0.0 0.0 1.0
vn 0.0 0.0 1.0
vn 0.0 0.0 1.0
vn 0.0 0.0 1.0
vn 0.0 0.0 1.0
vn 0.0 0.0 1.0
vn 0.0 0.0 1.0
vn 0.0 0.0 1.0
vn 0.0 0.0 1.0
vn 0.0 0.0 1.0
vn 0.0 0.0 1.0
vn 0.0 0.0 1.0
vn 0.0 0.0 1.0
vn 0.0 0.0 1.0
vn -0.167506143450737 0.9858710169792175 -2.0817985348367069e-16
vn -0.167506143450737 0.9858710169792175 0.0
vn -0.4837189018726349 0.8752233982086182 0.0
vn -0.4837189018726349 0.8752233982086182 0.0
vn -0.7456421852111816 0.6663466095924377 0.0
vn -0.7456421852111816 0.6663466095924377 0.0
vn -0.9238795638084412 0.3826833963394165 0.0
vn -0.9238795638084412 0.3826833963394165 0.0
vn -0.9984267950057983 0.05607040598988533 0.0
vn -0.9984267950057983 0.05607040598988533 0.0
vn -0.9609173536300659 -0.27683550119400024 0.0
vn -0.9609173536300659 -0.27683550119400024 0.0
vn -0.8155608773231506 -0.5786712765693665 0.0
vn -0.8155608773231506 -0.5786712765693665 0.0
vn -0.5786712765693665 -0.8155608773231506 0.0
vn -0.5786712765693665 -0.8155608773231506 0.0
vn -0.27683550119400024 -0.9609173536300659 0.0
vn -0.27683550119400024 -0.9609173536300659 0.0
vn 0.05607040598988533 -0.9984267950057983 0.0
vn 0.05607040598988533 -0.9984267950057983 0.0
vn 0.3826833963394165 -0.9238795638084412 0.0
vn 0.3826833963394165 -0.9238795638084412 0.0
vn 0.6663466095924377 -0.7456421852111816 0.0
vn 0.6663466095924377 -0.7456421852111816 0.0
vn 0.8752233982086182 -0.4837189018726349 0.0
vn 0.8752233982086182 -0.4837189018726349 0.0
vn 0.9858710169792175 -0.167506143450737 0.0
vn 0.9858710169792175 -0.167506143450737 0.0
vn -1.0 0.0 0.0
vn -1.0 0.0 0.0
vn -1.0 0.0 0.0
vn -1.0 0.0 0.0
vn -1.0 -3.0542993756035733e-15 -1.2428192562542392e-15
vn -1.0 4.919462537325754e-16 -5.39206192326833e-16
vn 0.0 1.0 0.0
vn 0.0 1.0 0.0
vn 1.0 0.0 0.0
vn 1.0 -0.0 0.0
vn 1.2246468525851679e-16 -1.0 -3.749135378252412e-16
vn 2.939687929845745e-16 -1.0 2.5024177587375533e-16
vn -2.4492934404725397e-16 -1.0 0.0
vn -4.489090324607315e-17 -1.0 1.7706395258249615e-16
vn 1.7615021579064558e-16 -1.0 0.0
vn 6.123233601181349e-17 -1.0 6.07457420533955e-17
vn -0.08937802165746689 0.526041567325592 0.8457493185997009
vn 0.5837841629981995 -0.3226461112499237 0.745047390460968
vn 0.526041567325592 -0.08937802165746689 0.8457493185997009
vn 0.4531567394733429 -0.06057348847389221 -0.8893704414367676
vn 0.2887188494205475 0.15153135359287262 -0.9453462958335876
vn 0.6104739308357239 0.32040145993232727 -0.7243372797966003
vn 0.15426629781723022 0.16591927409172058 -0.9739983081817627
vn 0.131757453083992 0.19088365137577057 -0.9727299213409424
vn 0.6980212926864624 0.15978971123695374 -0.6980212926864624
vn 0.8674039840698242 0.2286432683467865 -0.441964328289032
vn 0.5568805932998657 0.25228050351142883 -0.791352391242981
vn 0.027957435697317123 0.2302498072385788 -0.9727299213409424
vn 0.4912469983100891 0.4352068603038788 -0.754500687122345
vn 0.35055112838745117 0.5078610777854919 -0.786886990070343
vn -0.08224739879369736 0.2168685346841812 -0.9727299213409424
vn 0.9859086275100708 0.15615269541740417 -0.060003556311130524
vn 0.8785927891731262 0.4476653039455414 -0.166344553232193
vn 0.9851077795028687 0.07224030792713165 -0.15602585673332214
vn 0.8621307015419006 0.20857907831668854 -0.46176353096961975
vn 0.0743829756975174 0.6125978231430054 -0.7868869304656982
vn 0.23272687196731567 0.613650381565094 -0.7545007467269897
vn -0.17361028492450714 0.15380527079105377 -0.9727299213409424
vn 0.6644678711891174 0.5886671543121338 -0.46038419008255005
vn 0.706162691116333 0.706162691116333 -0.051656194031238556
vn 0.8240711092948914 0.43250590562820435 -0.3658488690853119
vn 0.8697164058685303 0.45646241307258606 -0.18771135807037354
vn -0.07910812646150589 0.6515140533447266 -0.7545006275177002
vn -0.21882568299770355 0.5769959092140198 -0.7868869304656982
vn -0.22520115971565247 0.0555071160197258 -0.9727299213409424
vn 0.5286832451820374 0.7659299373626709 -0.3658488690853119
vn 0.314789742231369 0.8300323486328125 -0.46038421988487244
vn 0.45284122228622437 0.888751208782196 -0.07110626995563507
vn 0.1548437774181366 0.9776443839073181 -0.14224916696548462
vn 0.5522482395172119 0.8000697493553162 -0.23432934284210205
vn -0.3728203773498535 0.5401236414909363 -0.754500687122345
vn -0.4619038701057434 0.40921106934547424 -0.786886990070343
vn -0.22520115971565247 -0.0555071160197258 -0.9727299213409424
vn 0.11803937703371048 0.9721423983573914 -0.20249925553798676
vn 0.11218030750751495 0.923888623714447 -0.3658488690853119
vn -0.10700277984142303 0.8812474012374878 -0.46038419008255005
vn -0.5991654992103577 0.14768105745315552 -0.7868869304656982
vn -0.5811240673065186 0.30499741435050964 -0.754500687122345
vn -0.17361028492450714 -0.15380527079105377 -0.9727299213409424
vn -0.33002161979675293 0.8701955676078796 -0.3658488392829895
vn -0.35359594225883484 0.932356059551239 0.07537999004125595
vn -0.5042822360992432 0.730579137802124 -0.46038419008255005
vn -0.5991654992103577 -0.14768105745315552 -0.7868869304656982
vn -0.6562992334365845 0.0 -0.754500687122345
vn -0.08224739879369736 -0.2168685346841812 -0.9727299213409424
vn -0.7860368490219116 0.412543922662735 -0.4603841006755829
vn -0.6966197490692139 0.6171512007713318 -0.36584872007369995
vn -0.5811240673065186 -0.30499741435050964 -0.7545007467269897
vn -0.4619038701057434 -0.40921106934547424 -0.786886990070343
vn -0.16439583897590637 0.976055920124054 0.14243869483470917
vn -0.1825035959482193 0.8917512893676758 0.41409197449684143
vn -0.3072737157344818 0.9492742419242859 -0.06679365783929825
vn 0.027957435697317123 -0.2302498072385788 -0.9727299213409424
vn -0.8877198100090027 0.0 -0.4603842496871948
vn -0.9036305546760559 0.222725048661232 -0.3658488392829895
vn -0.21882568299770355 -0.5769959092140198 -0.7868869304656982
vn -0.3728203773498535 -0.5401236414909363 -0.754500687122345
vn -0.7478725910186768 0.6625572443008423 -0.041286248713731766
vn -0.5660621523857117 0.8200824856758118 0.08389516174793243
vn 0.15426629781723022 -0.16591927409172058 -0.9739983081817627
vn 0.1317574679851532 -0.19088368117809296 -0.9727299213409424
vn -0.7860368490219116 -0.412543922662735 -0.4603841006755829
vn -0.9036305546760559 -0.222725048661232 -0.3658488690853119
vn 0.06641925871372223 0.7471445798873901 0.6613346934318542
vn 0.0743829756975174 -0.6125978231430054 -0.7868869304656982
vn -0.07910812646150589 -0.6515140533447266 -0.754500687122345
vn -0.8823344111442566 0.46308478713035583 0.08389513939619064
vn -0.9701138734817505 0.23911172151565552 -0.0412861667573452
vn 0.4531567394733429 0.06057348847389221 -0.8893704414367676
vn 0.6104739308357239 -0.32040145993232727 -0.7243372201919556
vn 0.2887188196182251 -0.15153133869171143 -0.9453462958335876
vn -0.5042822360992432 -0.730579137802124 -0.46038419008255005
vn -0.6966197490692139 -0.6171512007713318 -0.3658487796783447
vn -0.45739680528640747 0.408754825592041 0.7897516489028931
vn -0.28752225637435913 0.5202321410179138 0.8041700720787048
vn -0.278368204832077 0.8163072466850281 0.5061161518096924
vn -0.5187579989433289 0.7515506744384766 0.40750670433044434
vn -0.23008061945438385 0.6066727638244629 0.7609277963638306
vn -0.326407790184021 0.8606665730476379 0.39078250527381897
vn -0.2361074537038803 0.5664377808570862 0.7895577549934387
vn 0.35055112838745117 -0.5078610777854919 -0.786886990070343
vn 0.23272687196731567 -0.613650381565094 -0.7545007467269897
vn -0.9701138734817505 -0.23911172151565552 -0.0412861667573452
vn -0.99647456407547 0.0 0.08389528095722198
vn -0.10700277984142303 -0.8812474012374878 -0.46038419008255005
vn -0.33002161979675293 -0.8701955676078796 -0.3658488392829895
vn -0.5485454201698303 0.22721488773822784 0.8046560287475586
vn -0.8086004853248596 0.424386203289032 0.40750664472579956
vn -0.6497986316680908 0.575671374797821 0.496351033449173
vn -0.4600387215614319 0.40755873918533325 0.7888346910476685
vn 0.6980212926864624 -0.15978971123695374 -0.6980212926864624
vn 0.8674039840698242 -0.2286432683467865 -0.441964328289032
vn 0.5568805932998657 -0.25228050351142883 -0.791352391242981
vn 0.4912469983100891 -0.4352068603038788 -0.754500687122345
vn -0.7478725910186768 -0.6625572443008423 -0.041286248713731766
vn -0.8823344111442566 -0.46308478713035583 0.08389513939619064
vn 0.314789742231369 -0.8300323486328125 -0.46038421988487244
vn 0.11218030750751495 -0.923888623714447 -0.3658488392829895
vn -0.5907824039459229 0.0331776924431324 0.8061484694480896
vn -0.6024906039237976 0.14850054681301117 0.7841892242431641
vn -0.9132022261619568 0.0 0.40750670433044434
vn -0.8428959846496582 0.20775513350963593 0.496351033449173
vn -0.5660621523857117 -0.8200824856758118 0.08389515429735184
vn -0.35430246591567993 -0.9342190027236938 -0.041286300867795944
vn 0.5286832451820374 -0.7659299373626709 -0.3658488988876343
vn 0.6644678711891174 -0.5886671543121338 -0.46038419008255005
vn -0.48741328716278076 -0.3458380699157715 0.8017632365226746
vn -0.5834002494812012 -0.16807471215724945 0.7946036458015442
vn -0.5989224910736084 -0.14762108027935028 0.7870831489562988
vn -0.8086004853248596 -0.424386203289032 0.40750664472579956
vn -0.8428959846496582 -0.20775513350963593 0.496351033449173
vn 0.12043382972478867 -0.9918624758720398 -0.04128628596663475
vn -0.12011173367500305 -0.9892092347145081 0.08389507234096527
vn 0.8240711092948914 -0.43250590562820435 -0.3658488690853119
vn 0.9851077795028687 -0.07224030792713165 -0.15602585673332214
vn 0.8437769412994385 -0.4428483247756958 0.3031929135322571
vn 0.8621307015419006 -0.20857907831668854 -0.46176353096961975
vn -0.34171947836875916 -0.48160848021507263 0.8070198893547058
vn -0.6497986316680908 -0.575671374797821 0.496351033449173
vn -0.4639047086238861 -0.41098371148109436 0.7847833037376404
vn -0.5187579989433289 -0.7515506744384766 0.40750670433044434
vn 0.5675804018974304 -0.8222821354866028 -0.041286155581474304
vn 0.353354811668396 -0.9317198395729065 0.08389519155025482
vn -0.2194722294807434 -0.5787007212638855 0.7854536175727844
vn -0.11007434129714966 -0.9065439701080322 0.40750670433044434
vn 0.03381577134132385 -0.6021444797515869 0.7976706624031067
vn -0.16630162298679352 -0.5772458910942078 0.7994566559791565
vn -0.3078402876853943 -0.8117080926895142 0.49635109305381775
vn 0.9637694954872131 -0.22664329409599304 0.14064571261405945
vn 0.8822664022445679 -0.23186634480953217 0.4096876084804535
vn 0.745871901512146 -0.660784900188446 0.08389521390199661
vn 0.9307699799537659 -0.35041216015815735 -0.10430052876472473
vn 0.22609758377075195 -0.5458476543426514 0.8068024516105652
vn 0.10464052855968475 -0.8617923259735107 0.49635109305381775
vn 0.3238260746002197 -0.8538588881492615 0.40750664472579956
vn 0.07451445609331131 -0.6136818528175354 0.7860293984413147
vn 0.5586769580841064 -0.2639668881893158 0.7862579822540283
vn 0.397074431180954 -0.4443264901638031 0.8030602931976318
vn 0.35229724645614624 -0.51039057970047 0.7844667434692383
vn 0.7913548350334167 -0.31326934695243835 0.5249951481819153
vn 0.6835415959358215 -0.6055651307106018 0.40750670433044434
vn 0.4931495189666748 -0.7144502997398376 0.4963509738445282
vn 0.7483507394790649 -0.03455910459160805 0.662402331829071
vn 0.8854213356971741 -0.4647049307823181 0.008862035349011421
vn 0.5033525824546814 -0.2641797959804535 0.8227061033248901
vn 0.0 0.0 -1.0
vn 0.0 0.0 -1.0
vn 1.5665584674200324e-14 5.317608807171685e-14 -1.0
vn 0.0 0.0 -1.0
vn 0.0 0.0 -1.0
vn 0.0 0.0 -1.0
vn 0.0 0.0 -1.0
f 1//1 2//1 3//1 
f 4//2 3//2 5//2 
f 6//3 1//3 3//3 
f 7//4 3//4 4//4 
f 7//5 6//5 3//5 
f 3//6 8//6 9//6 
f 3//7 9//7 10//7 
f 3//8 10//8 11//8 
f 3//9 11//9 12//9 
f 3//10 12//10 13//10 
f 3//11 13//11 14//11 
f 3//12 14//12 15//12 
f 3//13 15//13 16//13 
f 17//14 8//14 3//14 
f 18//15 3//15 16//15 
f 19//16 17//16 3//16 
f 20//17 3//17 18//17 
f 2//18 19//18 3//18 
f 5//19 3//19 20//19 
f 21//20 4//20 5//20 
f 21//21 7//21 4//21 
f 22//22 1//22 6//22 
f 22//23 2//23 1//23 
f 23//24 6//24 7//24 
f 23//25 22//25 6//25 
f 23//26 7//26 21//26 
f 24//27 25//27 2//27 
f 2//28 25//28 19//28 
f 19//29 26//29 17//29 
f 25//30 26//30 19//30 
f 17//31 27//31 8//31 
f 26//32 27//32 17//32 
f 8//33 28//33 9//33 
f 27//34 28//34 8//34 
f 9//35 29//35 10//35 
f 28//36 29//36 9//36 
f 10//37 30//37 11//37 
f 29//38 30//38 10//38 
f 11//39 31//39 12//39 
f 30//40 31//40 11//40 
f 12//41 32//41 13//41 
f 31//42 32//42 12//42 
f 13//43 33//43 14//43 
f 32//44 33//44 13//44 
f 14//45 34//45 15//45 
f 33//46 34//46 14//46 
f 15//47 35//47 16//47 
f 34//48 35//48 15//48 
f 16//49 36//49 18//49 
f 35//50 36//50 16//50 
f 18//51 37//51 20//51 
f 36//52 37//52 18//52 
f 20//53 38//53 5//53 
f 37//54 38//54 20//54 
f 39//55 40//55 41//55 
f 40//56 42//56 41//56 
f 42//57 22//57 41//57 
f 42//58 43//58 22//58 
f 24//59 2//59 43//59 
f 43//60 2//60 22//60 
f 23//61 44//61 41//61 
f 23//62 41//62 22//62 
f 21//63 45//63 44//63 
f 21//64 44//64 23//64 
f 46//65 45//65 47//65 
f 47//66 45//66 48//66 
f 49//67 5//67 38//67 
f 48//68 21//68 49//68 
f 45//69 21//69 48//69 
f 49//70 21//70 5//70 
f 25//71 24//71 43//71 
f 37//72 36//72 49//72 
f 38//73 37//73 49//73 
f 50//74 51//74 52//74 
f 53//75 50//75 52//75 
f 53//76 51//76 50//76 
f 53//77 52//77 54//77 
f 55//78 53//78 54//78 
f 56//79 57//79 51//79 
f 56//80 58//80 57//80 
f 56//81 51//81 53//81 
f 59//82 55//82 54//82 
f 60//83 56//83 53//83 
f 60//84 53//84 55//84 
f 61//85 59//85 54//85 
f 62//86 63//86 46//86 
f 62//87 64//87 63//87 
f 62//88 46//88 58//88 
f 62//89 58//89 56//89 
f 65//90 55//90 59//90 
f 65//91 60//91 55//91 
f 66//92 61//92 54//92 
f 67//93 56//93 60//93 
f 67//94 68//94 64//94 
f 67//95 62//95 56//95 
f 67//96 64//96 62//96 
f 69//97 65//97 59//97 
f 69//98 59//98 61//98 
f 70//99 66//99 54//99 
f 71//100 67//100 60//100 
f 71//101 60//101 65//101 
f 71//102 72//102 68//102 
f 71//103 39//103 72//103 
f 71//104 68//104 67//104 
f 73//105 69//105 61//105 
f 73//106 61//106 66//106 
f 74//107 70//107 54//107 
f 75//108 39//108 71//108 
f 75//109 71//109 65//109 
f 75//110 65//110 69//110 
f 76//111 66//111 70//111 
f 76//112 73//112 66//112 
f 77//113 74//113 54//113 
f 78//114 75//114 69//114 
f 78//115 39//115 75//115 
f 78//116 69//116 73//116 
f 79//117 70//117 74//117 
f 79//118 76//118 70//118 
f 80//119 77//119 54//119 
f 81//120 73//120 76//120 
f 81//121 78//121 73//121 
f 82//122 79//122 74//122 
f 82//123 74//123 77//123 
f 83//124 40//124 39//124 
f 83//125 42//125 40//125 
f 83//126 39//126 78//126 
f 84//127 80//127 54//127 
f 85//128 76//128 79//128 
f 85//129 81//129 76//129 
f 86//130 77//130 80//130 
f 86//131 82//131 77//131 
f 87//132 78//132 81//132 
f 87//133 83//133 78//133 
f 88//134 54//134 52//134 
f 88//135 84//135 54//135 
f 89//136 79//136 82//136 
f 89//137 85//137 79//137 
f 90//138 43//138 42//138 
f 91//139 80//139 84//139 
f 91//140 86//140 80//140 
f 92//141 87//141 81//141 
f 92//142 81//142 85//142 
f 93//143 52//143 51//143 
f 93//144 51//144 88//144 
f 93//145 88//145 52//145 
f 94//146 82//146 86//146 
f 94//147 89//147 82//147 
f 95//148 27//148 26//148 
f 95//149 26//149 25//149 
f 95//150 42//150 83//150 
f 95//151 83//151 87//151 
f 95//152 43//152 90//152 
f 95//153 90//153 42//153 
f 95//154 25//154 43//154 
f 96//155 84//155 88//155 
f 96//156 91//156 84//156 
f 97//157 85//157 89//157 
f 97//158 92//158 85//158 
f 98//159 86//159 91//159 
f 98//160 94//160 86//160 
f 99//161 28//161 27//161 
f 99//162 87//162 92//162 
f 99//163 95//163 87//163 
f 99//164 27//164 95//164 
f 100//165 51//165 57//165 
f 100//166 57//166 58//166 
f 100//167 88//167 51//167 
f 100//168 96//168 88//168 
f 101//169 89//169 94//169 
f 101//170 97//170 89//170 
f 102//171 91//171 96//171 
f 102//172 98//172 91//172 
f 103//173 29//173 28//173 
f 103//174 28//174 99//174 
f 103//175 92//175 97//175 
f 103//176 99//176 92//176 
f 104//177 101//177 94//177 
f 104//178 94//178 98//178 
f 105//179 102//179 96//179 
f 105//180 96//180 100//180 
f 106//181 31//181 30//181 
f 106//182 30//182 29//182 
f 106//183 29//183 103//183 
f 106//184 97//184 101//184 
f 106//185 103//185 97//185 
f 107//186 98//186 102//186 
f 107//187 104//187 98//187 
f 108//188 105//188 100//188 
f 108//189 58//189 46//189 
f 108//190 46//190 105//190 
f 108//191 100//191 58//191 
f 109//192 32//192 31//192 
f 109//193 106//193 101//193 
f 109//194 31//194 106//194 
f 109//195 101//195 104//195 
f 110//196 102//196 105//196 
f 110//197 107//197 102//197 
f 111//198 32//198 109//198 
f 111//199 104//199 107//199 
f 111//200 34//200 33//200 
f 111//201 33//201 32//201 
f 111//202 109//202 104//202 
f 112//203 46//203 47//203 
f 112//204 47//204 48//204 
f 112//205 110//205 105//205 
f 112//206 105//206 46//206 
f 113//207 35//207 34//207 
f 113//208 111//208 107//208 
f 113//209 107//209 110//209 
f 113//210 34//210 111//210 
f 114//211 49//211 36//211 
f 114//212 36//212 35//212 
f 114//213 35//213 113//213 
f 114//214 112//214 48//214 
f 114//215 110//215 112//215 
f 114//216 113//216 110//216 
f 115//217 48//217 49//217 
f 115//218 114//218 48//218 
f 115//219 49//219 114//219 
f 72//220 41//220 68//220 
f 39//221 41//221 72//221 
f 63//222 45//222 46//222 
f 64//223 45//223 63//223 
f 68//224 44//224 64//224 
f 64//225 44//225 45//225 
f 41//226 44//226 68//226 
